<svg width="9" height="10" viewBox="0 0 9 10" fill="none" xmlns="http://www.w3.org/2000/svg">
<path d="M0.329063 2.66868C0.224737 2.7829 0.141982 2.91851 0.0855208 3.06775C0.02906 3.21699 0 3.37695 0 3.53849C0 3.70003 0.02906 3.85999 0.0855208 4.00924C0.141982 4.15848 0.224737 4.29409 0.329063 4.40831L3.705 8.10103C3.91607 8.33187 4.2022 8.46154 4.50053 8.46154C4.79886 8.46154 5.08499 8.33187 5.29607 8.10103L8.67088 4.40954C8.77528 4.29516 8.85807 4.15937 8.91454 4.00995C8.97101 3.86053 9.00005 3.70039 9 3.53867C8.99995 3.37696 8.97081 3.21684 8.91424 3.06746C8.85767 2.91808 8.77479 2.78237 8.67032 2.66806C8.56584 2.55375 8.44183 2.46309 8.30537 2.40126C8.1689 2.33943 8.02264 2.30764 7.87495 2.30769C7.72726 2.30775 7.58102 2.33966 7.44459 2.4016C7.30816 2.46353 7.18421 2.55429 7.07981 2.66868L4.49941 5.49034L1.92125 2.66868C1.71018 2.43783 1.42405 2.30816 1.12572 2.30816C0.827391 2.30816 0.541261 2.43783 0.33019 2.66868H0.329063Z" fill="#1E266D"/>
</svg>
