<svg width="16" height="15" viewBox="0 0 16 15" fill="none" xmlns="http://www.w3.org/2000/svg">
<path d="M15.8991 2.5979C15.315 2.86004 14.6864 3.03686 14.0268 3.11599C14.7003 2.70894 15.2166 2.06417 15.4602 1.29501C14.8302 1.67243 14.1329 1.94629 13.3901 2.09413C12.7957 1.45457 11.9484 1.05469 11.0107 1.05469C9.21064 1.05469 7.75115 2.52821 7.75115 4.34594C7.75115 4.60352 7.77986 4.85459 7.83566 5.09589C5.12633 4.95847 2.72405 3.64841 1.1162 1.65712C0.835588 2.14298 0.674964 2.70829 0.674964 3.31203C0.674964 4.45372 1.25037 5.46126 2.1251 6.05132C1.59097 6.03406 1.08814 5.88589 0.648515 5.63938C0.648193 5.65306 0.648193 5.66706 0.648193 5.68106C0.648193 7.2754 1.77192 8.60531 3.26334 8.90816C2.98983 8.98306 2.7018 9.02344 2.40442 9.02344C2.19412 9.02344 1.98996 9.00292 1.79095 8.96417C2.20606 10.2716 3.40977 11.2235 4.83604 11.2498C3.72038 12.1327 2.31508 12.6589 0.78753 12.6589C0.52466 12.6589 0.265016 12.6433 0.0098877 12.6126C1.45293 13.5469 3.16626 14.0914 5.00699 14.0914C11.0033 14.0914 14.2819 9.07652 14.2819 4.72726C14.2819 4.58463 14.279 4.44233 14.2729 4.301C14.9096 3.83794 15.4624 3.25797 15.8991 2.5979Z" fill="#1E266D"/>
</svg>
