<svg width="16" height="16" viewBox="0 0 16 16" fill="none" xmlns="http://www.w3.org/2000/svg">
<path d="M12.2524 1.36328H3.66893C2.17796 1.36328 0.964966 2.57599 0.964966 4.06697V6.92305V12.6507C0.964966 14.1417 2.17796 15.3544 3.66893 15.3544H12.2527C13.7437 15.3544 14.9564 14.1417 14.9564 12.6507V6.92277V4.06668C14.9561 2.57571 13.7434 1.36328 12.2524 1.36328ZM13.028 2.97561L13.3373 2.97449V3.28239V5.346L10.9737 5.35362L10.9655 2.98239L13.028 2.97561ZM5.96368 6.92277C6.41185 6.30273 7.13885 5.89605 7.96068 5.89605C8.78251 5.89605 9.50951 6.30273 9.95712 6.92277C10.2487 7.32747 10.4233 7.82249 10.4233 8.35871C10.4233 9.71648 9.3176 10.8211 7.9604 10.8211C6.60235 10.8211 5.49773 9.71648 5.49773 8.35871C5.49801 7.82249 5.67214 7.32747 5.96368 6.92277ZM13.593 12.6505C13.593 13.3902 12.9916 13.991 12.2524 13.991H3.66893C2.92951 13.991 2.3281 13.3902 2.3281 12.6505V6.92277H4.41654C4.2362 7.36642 4.13488 7.851 4.13488 8.35871C4.13488 10.4678 5.85079 12.1848 7.96068 12.1848C10.0703 12.1848 11.7862 10.4678 11.7862 8.35871C11.7862 7.851 11.6843 7.36642 11.504 6.92277H13.593V12.6505Z" fill="#1E266D"/>
</svg>
